<svg xmlns="http://www.w3.org/2000/svg" width="1600" height="900" viewBox="0 0 1600 900" role="img" aria-labelledby="title desc"><title id="title">How to Organize PDF Pages Online for Free</title><desc id="desc">Reorder, remove and keep pages</desc><defs><linearGradient id="blue" x1="0" y1="0" x2="1" y2="1"><stop stop-color="#0877ff"/><stop offset="1" stop-color="#1642d8"/></linearGradient><linearGradient id="red" x1="0" y1="0" x2="1" y2="1"><stop stop-color="#ff3c45"/><stop offset="1" stop-color="#d90008"/></linearGradient><filter id="shadow" x="-30%" y="-30%" width="160%" height="160%"><feDropShadow dx="0" dy="18" stdDeviation="18" flood-color="#0b3475" flood-opacity=".20"/></filter><marker id="arrow" markerWidth="7" markerHeight="7" refX="6" refY="3.5" orient="auto"><path d="M0 0L7 3.5 0 7z" fill="#1769ff"/></marker><style>.brand{font:900 40px Arial;fill:#10245f}.brandBlue{fill:#1769ff}.hero{font:900 76px Arial;letter-spacing:-2px}.sub{font:700 27px Arial;fill:#526581}.feature{font:900 23px Arial;fill:#10245f}.feature2{font:700 20px Arial;fill:#526581}.tag{font:900 34px Arial;fill:white}.badgeText{font:900 30px Arial;fill:#1769ff}.smallStrong{font:900 30px Arial;fill:#10245f}.caseBig{font:900 54px Arial;fill:#1769ff}.urlText{font:700 22px Arial;fill:#163568}.statusGreen{font:900 28px Arial;fill:#16a34a}.metaBlue{font:700 29px Arial;fill:#1557cf}.metaUrl{font:600 21px Arial;fill:#16833f}.metaBody{font:500 22px Arial;fill:#53627b}.codeText{font:900 25px Arial;fill:#1769ff}</style></defs><rect width="1600" height="900" fill="#fbfdff"/><circle cx="1320" cy="240" r="420" fill="#e5f2ff"/><circle cx="1320" cy="240" r="320" fill="#d8ecff" opacity=".75"/><path d="M0 820C310 730 520 900 850 792S1330 700 1600 610V900H0z" fill="#257dff" opacity=".45"/><path d="M0 860C360 760 590 930 920 825S1370 720 1600 650V900H0z" fill="url(#blue)"/><g transform="translate(76,70)"><rect width="72" height="72" rx="20" fill="url(#blue)" filter="url(#shadow)"/><text x="36" y="48" text-anchor="middle" font="900 25px Arial" fill="white">FWT</text><text x="95" y="51" class="brand">Fast Web <tspan class="brandBlue">Tools</tspan></text></g><text x="76" y="280" class="hero" fill="#10245f">How to Organize</text><text x="76" y="385" class="hero" fill="#1769ff">PDF Pages</text><text x="76" y="490" class="hero" fill="#10245f">Online for Free</text><text x="80" y="620" class="sub">Reorder, remove and keep pages</text><rect x="80" y="650" width="680" height="4" rx="2" fill="#d8e5f7"/><g transform="translate(80,710)"><circle cx="32" cy="32" r="32" fill="#1769ff"/><path d="M18 33l10 10 20-24" stroke="white" stroke-width="8" fill="none" stroke-linecap="round" stroke-linejoin="round"/><text x="78" y="27" class="feature">Custom</text><text x="78" y="55" class="feature2">page order</text></g><g transform="translate(330,710)"><circle cx="32" cy="32" r="32" fill="#1769ff"/><path d="M18 33l10 10 20-24" stroke="white" stroke-width="8" fill="none" stroke-linecap="round" stroke-linejoin="round"/><text x="78" y="27" class="feature">Remove</text><text x="78" y="55" class="feature2">unwanted pages</text></g><g transform="translate(580,710)"><circle cx="32" cy="32" r="32" fill="#1769ff"/><path d="M18 33l10 10 20-24" stroke="white" stroke-width="8" fill="none" stroke-linecap="round" stroke-linejoin="round"/><text x="78" y="27" class="feature">No</text><text x="78" y="55" class="feature2">software needed</text></g><g filter="url(#shadow)"><path d="M910 236q0-26 26-26h110l70 70v139q0 26-26 26h-128q-18 0-18-18z" fill="white" stroke="#d7e5f8" stroke-width="3"/><path d="M1020 210v70h70" fill="#e8eef7"/><rect x="896" y="284" width="128" height="56" rx="14" fill="url(#red)"/><text x="960" y="322" text-anchor="middle" class="tag">PDF</text><path d="M988 385q38-72 52 0q-12 54-68 58q82-25 112 10" stroke="#ef1b25" stroke-width="10" fill="none" stroke-linecap="round"/><rect x="958" y="470" width="140" height="12" rx="6" fill="#d7deea"/></g><g filter="url(#shadow)"><path d="M910 496q0-26 26-26h110l70 70v139q0 26-26 26h-128q-18 0-18-18z" fill="white" stroke="#d7e5f8" stroke-width="3"/><path d="M1020 470v70h70" fill="#e8eef7"/><rect x="896" y="544" width="128" height="56" rx="14" fill="url(#red)"/><text x="960" y="582" text-anchor="middle" class="tag">PDF</text><path d="M988 645q38-72 52 0q-12 54-68 58q82-25 112 10" stroke="#ef1b25" stroke-width="10" fill="none" stroke-linecap="round"/><rect x="958" y="730" width="140" height="12" rx="6" fill="#d7deea"/></g><g filter="url(#shadow)"><path d="M1260 361q0-26 26-26h140l70 70v189q0 26-26 26h-158q-18 0-18-18z" fill="white" stroke="#d7e5f8" stroke-width="3"/><path d="M1400 335v70h70" fill="#e8eef7"/><rect x="1246" y="409" width="128" height="56" rx="14" fill="url(#red)"/><text x="1310" y="447" text-anchor="middle" class="tag">PDF</text><path d="M1338 510q38-72 52 0q-12 54-68 58q82-25 112 10" stroke="#ef1b25" stroke-width="10" fill="none" stroke-linecap="round"/><rect x="1308" y="595" width="140" height="12" rx="6" fill="#d7deea"/></g><path d="M1095 330c90 0 80 80 150 80" stroke="#1769ff" stroke-width="18" fill="none" marker-end="url(#arrow)"/><path d="M1095 585c90 0 80-90 150-110" stroke="#1769ff" stroke-width="18" fill="none" marker-end="url(#arrow)"/><circle cx="1188" cy="455" r="44" fill="#1769ff"/><text x="1188" y="472" text-anchor="middle" font-size="48" font-weight="900" fill="white">+</text></svg>